<svg width="623" height="623" viewBox="0 0 623 623" fill="none" xmlns="http://www.w3.org/2000/svg">
<path d="M527.217 280.326C533.451 244.689 526.766 208.422 507.972 177.091C487.287 142.609 454.421 118.252 415.419 108.512C403.449 105.519 391.167 104 378.905 104C323.139 104 272.447 134.727 246.391 183.295C233.93 174.776 219.201 170.191 203.808 170.191C183.316 170.191 164.131 178.246 149.78 192.876C137.79 205.098 130.309 221.161 128.519 238.061C68.4088 241.663 19.4867 291.672 18.0344 352.627C17.285 384.024 28.8043 413.842 50.4634 436.56C72.1292 459.292 101.335 472.217 132.73 472.967L507.733 473C561.37 473 605 429.348 605 375.684C605 328.602 572.266 289.389 527.217 280.326ZM507.733 453.102H135.515L133.187 453.068C107.118 452.451 82.8527 441.709 64.8609 422.826C46.869 403.943 37.2995 379.187 37.9229 353.105C39.1763 300.529 82.9323 257.753 135.469 257.753L137.836 257.78C140.542 257.906 143.201 256.785 145.124 254.854C147.048 252.916 148.095 250.276 148.016 247.542C147.578 232.441 153.394 217.598 163.972 206.816C174.556 196.034 188.701 190.089 203.802 190.089C218.511 190.089 232.391 195.762 242.889 206.073C245.237 208.375 248.546 209.384 251.775 208.734C254.992 208.103 257.698 205.921 258.991 202.908C279.642 154.91 326.707 123.892 378.899 123.892C389.536 123.892 400.2 125.212 410.592 127.806C444.433 136.266 472.949 157.399 490.902 187.323C508.854 217.247 514.079 252.372 505.631 286.231C504.928 289.057 505.491 292.05 507.182 294.425C508.873 296.794 511.513 298.307 514.418 298.559C554.705 302.062 585.092 335.217 585.092 375.677C585.105 418.374 550.395 453.102 507.733 453.102Z" fill="#143E78"/>
</svg>
